OFF
1014 2024 0
0.004456082 0.03481813 0.03810535 
-0.01000268 0.03488731 0.04243225 
-0.01935539 0.03486655 0.04479852 
-0.01736585 0.03936763 0.03956222 
-0.02872439 0.03467373 0.04281679 
-0.03151581 0.03789037 0.03191621 
-0.02759597 0.03891145 0.03753144 
-0.009201455 0.03940748 0.03821481 
-0.0486593 0.0358221 0.009846197 
-0.05347209 0.03337367 0.02049972 
-0.04403064 0.03376022 0.02676863 
-0.036082 0.035145 0.021496 
-0.03626154 0.03608785 0.01409933 
-0.04042371 0.03614918 0.009673222 
-0.047104 0.035549 0.00808 
0.008074148 0.03615643 0.005756498 
0.007468 0.034306 0.016676 
0.008104 0.034843 0.018135 
0.01664267 0.03449031 0.02209253 
0.012883 0.035495 0.003851 
0.02280684 0.03608758 0.01238664 
0.01733611 0.03630896 0.004596342 
-0.03845926 0.03844544 -0.007627008 
-0.02783714 0.03801968 0.007757874 
-0.02658 0.037743 0.015705 
-0.029803 0.034287 0.016353 
-0.031002 0.033992 0.010953 
-0.04099431 0.03378073 -0.001926003 
-0.087443 0.110454 0.017341 
-0.016555 0.128252 0.006465 
-0.06593686 0.172061 -0.04431659 
-0.07736716 0.155722 0.02334421 
-0.07064805 0.155605 0.004326531 
-0.08495965 0.07939762 0.01960293 
-0.05483954 0.1524998 0.02771555 
-0.08941915 0.1422436 0.01337428 
-0.07071305 0.1819172 -0.05545606 
-0.01457018 0.1242817 0.03052439 
-0.0280972 0.1257542 0.01220815 
-0.05052511 0.1481432 0.01260119 
-0.07047581 0.03669101 -0.001367737 
-0.02449265 0.1249973 0.0194529 
-0.09227575 0.130262 0.0107917 
-0.08743695 0.1486608 0.03088178 
-0.03333617 0.1751982 -0.002208663 
-0.00968888 0.1667564 -0.02213154 
-0.07632734 0.1543854 0.002411194 
-0.06714363 0.1614277 -0.05725154 
-0.05816639 0.1537307 0.03045858 
-0.06219375 0.1605493 -0.02252589 
-0.08631931 0.08347397 0.006659887 
-0.05574678 0.05353797 0.008264152 
-0.06458591 0.157453 -0.01113584 
-0.03105547 0.03437174 0.02137375 
0.045658 0.072949 0.020693 
-0.08924537 0.1000042 0.01054733 
-0.05302452 0.04663692 0.0228822 
-0.08014098 0.1276806 0.05342699 
-0.0788637 0.1412182 0.04692778 
-0.09451414 0.1206526 0.01691289 
-0.08660258 0.08068437 0.01328504 
-0.06593047 0.1327032 -0.008525476 
-0.06087471 0.172624 -0.06082273 
-0.09210461 0.1144808 0.01099125 
-0.07282139 0.1187222 0.05367839 
-0.07682026 0.1334165 0.05234096 
-0.02963522 0.05055832 -0.02082585 
-0.08975124 0.1334716 0.005339727 
-0.0391213 0.03462461 0.04064032 
-0.07496776 0.1263247 0.05335106 
-0.07467484 0.1475848 0.04194677 
-0.028272 0.037689 0.022621 
-0.028596 0.037729 0.020714 
0.01994786 0.0349711 -0.00220076 
-0.007852711 0.1298705 0.02289582 
-0.003212407 0.1286871 0.02784196 
0.009579612 0.05980096 0.05284468 
0.03701407 0.1103623 0.02385403 
-0.02885888 0.120926 0.02618346 
-0.06904944 0.1708741 -0.03347505 
-0.03041694 0.1589702 -0.01309322 
-0.07423105 0.06678826 0.002214854 
-0.07328779 0.1019417 0.03799361 
0.04152428 0.1027933 0.001126985 
-0.009578 0.178815 -0.028737 
0.04134931 0.06252098 0.02891046 
-0.04644551 0.1317116 0.02200126 
-0.03056663 0.1796634 -0.008278228 
-0.07449207 0.1079405 0.03721411 
-0.000343677 0.07553139 0.05859048 
-0.07230536 0.1373259 0.04896956 
-0.07326205 0.1437614 0.04539876 
-0.04949182 0.1429054 0.00703891 
-0.01841964 0.1616808 -0.01457135 
0.03799872 0.05585768 0.03135195 
-0.03835032 0.1753107 -0.006251068 
-0.008517948 0.1306382 0.0113056 
-0.07184 0.143885 -0.01404966 
-0.009215223 0.173079 -0.02859484 
0.0343074 0.1147571 0.002415011 
0.04623226 0.08275861 0.007319031 
0.003432089 0.1315636 0.01853159 
-0.03107845 0.1007497 -0.02273079 
-0.0692232 0.09263699 0.04250278 
-0.04355726 0.06020257 0.04003158 
-0.02726358 0.03503603 0.05206643 
0.04669698 0.07466538 0.01550303 
-0.09006422 0.1324018 0.03395881 
-0.08970714 0.1399132 0.03142872 
-0.006234325 0.04581866 0.04708235 
-0.08678149 0.08447331 0.01821329 
-0.06185978 0.1697926 -0.06167609 
-0.003771648 0.062777 0.05619983 
-0.0003045128 0.1179398 0.03950062 
0.004965312 0.05194478 0.05324897 
-0.065853 0.144237 -0.014882 
0.001267662 0.05674951 0.05421064 
-0.001343763 0.08663502 0.05730275 
0.011142 0.05420315 0.05203782 
-0.06735632 0.147633 0.04044258 
-0.05101471 0.1400429 0.001509263 
0.04425085 0.08197817 -0.001454065 
0.03858439 0.1054422 0.02636943 
-0.02885346 0.124885 0.01822826 
-0.06543242 0.1007317 0.04182589 
0.002104131 0.0712001 0.05620395 
0.00284475 0.0785445 0.05652056 
0.009753885 0.09724689 0.04945143 
0.04035049 0.1068021 0.00913982 
-0.031098 0.154152 -0.006735 
0.0443346 0.09718928 0.006647555 
0.007179455 0.04647084 0.04886294 
0.007629646 0.04389966 0.04523348 
-0.05680791 0.0558956 0.004539543 
-0.01003916 0.1285625 -0.0001861282 
0.03320245 0.04850905 0.0314181 
-0.03572432 0.07981653 -0.02092458 
-0.0009104506 0.03844506 0.02155022 
-0.02567201 0.1193346 0.03074672 
0.02792356 0.03738211 -0.001175062 
-0.07668379 0.127632 -0.007748189 
-0.01938764 0.1660355 -0.01820134 
-0.001327349 0.0524786 0.05442186 
0.006518845 0.09953786 -0.02211214 
0.001708163 0.0489178 0.0513752 
0.0452267 0.05297752 0.03273995 
-0.05958112 0.08226167 0.0436281 
-0.06256443 0.08918992 0.04540884 
-0.002826108 0.06874331 0.05668004 
-0.02640039 0.04833451 0.04911031 
-0.06953263 0.1567314 -0.001776564 
-0.08106485 0.1358224 -0.003174145 
-0.05980054 0.093098 0.04557117 
-0.002298286 0.05862357 0.05411359 
0.01158175 0.1231354 0.03412211 
-0.07617137 0.09557602 -0.01318688 
-0.05319022 0.144066 -0.0003656418 
-0.05515316 0.08126901 0.04507355 
-0.05704745 0.1016127 0.04285941 
0.0145 0.108488 0.040796 
0.01630905 0.09592187 0.04796756 
-0.00959409 0.1100154 0.04279475 
-0.04032357 0.04567229 -0.0217547 
-0.05469665 0.04904959 0.03820662 
0.04484189 0.06922206 0.02382436 
-0.06572946 0.1794772 -0.05538952 
-0.07445217 0.1564604 0.0196759 
-0.07445668 0.1362496 -0.007028372 
-0.053489 0.086234 0.045457 
-0.05399184 0.089545 0.04496749 
-0.05417406 0.09664253 0.04342816 
-0.005987509 0.090799 0.05684383 
-0.03293568 0.05429742 -0.01014439 
0.02050737 0.1080231 0.03967564 
-0.05223323 0.07976344 0.04393799 
0.002614473 0.1005666 0.04560916 
0.0103902 0.1085438 0.04025599 
-0.04307246 0.1476338 0.003734291 
-0.04986862 0.04920328 0.03791387 
-0.06324981 0.1469384 -0.01607087 
0.04573866 0.0915742 0.008389663 
0.04688411 0.0595958 0.03176964 
-0.06699642 0.1514635 -0.04247836 
-0.07885335 0.1532922 0.03114557 
-0.05692615 0.07495694 -0.01848887 
-0.04975119 0.07548346 0.04320118 
-0.04978606 0.1040545 0.04029289 
-0.0799247 0.0707812 0.01619308 
-0.04911672 0.09169507 0.04421484 
-0.04393097 0.1047593 0.04143384 
-0.05070684 0.1099369 0.0380268 
-0.03297926 0.04167307 -0.03000274 
-0.0458268 0.0491933 0.03886123 
-0.07171176 0.1690391 -0.02449564 
-0.04795353 0.08665598 0.04546602 
-0.04939185 0.09683245 0.04454432 
-0.04632004 0.1641202 0.005524997 
0.003480587 0.06137243 0.05656711 
0.02101923 0.098698 0.04642529 
-0.04601542 0.09842689 0.04290617 
-0.04198822 0.06853309 0.04177948 
-0.04428998 0.0362816 0.04471258 
-0.04028633 0.07824434 0.04310853 
-0.04203004 0.0834236 0.04219655 
-0.042488 0.109818 0.038094 
-0.01711763 0.03879803 -0.01028225 
0.03146104 0.06209532 -0.01844022 
-0.04227782 0.04161927 0.04306548 
-0.04317364 0.05135588 0.03917944 
-0.04208263 0.08876932 0.04233053 
-0.04030745 0.1184299 0.03116726 
-0.061763 0.038716 0.023717 
-0.0374568 0.08355958 0.04411888 
0.031024 0.036338 0.002983 
0.04374676 0.09826032 0.01414772 
-0.04026493 0.09902907 0.04176365 
0.01184854 0.1024816 0.04730871 
-0.03937687 0.1696379 0.002208422 
0.002606469 0.09309147 0.05501814 
0.01458776 0.1190997 0.03549075 
-0.03831324 0.09023613 0.04349241 
-0.03656993 0.1096534 0.03680877 
-0.0356579 0.0771007 0.04218553 
0.001114547 0.112633 0.04224016 
-0.03823652 0.04455712 0.04078243 
-0.03761152 0.06249995 0.04137595 
-0.06132102 0.1662722 -0.05994831 
0.05628611 0.05067711 0.005550742 
-0.02215942 0.1825169 -0.01188805 
-0.01457451 0.03453152 -0.01899346 
-0.04614314 0.1243892 0.02542217 
-0.03513844 0.09442779 0.0444385 
-0.08643748 0.1381197 0.002812701 
-0.0675866 0.1406795 -0.008108811 
-0.03617669 0.05458804 0.03881589 
-0.03260003 0.08557298 0.04220996 
-0.03442992 0.1169517 0.03165333 
0.004838094 0.1256812 0.03211249 
-0.03033153 0.07304107 0.04003292 
-0.06367386 0.0415049 0.02628565 
-0.01846534 0.1280018 0.01670129 
-0.03036172 0.08803077 0.044051 
-0.04783835 0.1356965 0.01105351 
-0.005498 0.082867 0.05702 
0.005630403 0.131974 0.009136477 
-0.03151007 0.08059701 0.04119091 
-0.06759313 0.1558875 -0.05299659 
-0.02924791 0.08124407 0.04494246 
-0.05113919 0.1452147 0.01385592 
0.05748416 0.06647706 0.002622588 
0.005867087 0.1149643 0.04005935 
0.04042211 0.03969043 0.002675276 
0.04102394 0.04730019 0.03212441 
-0.03095162 0.09986163 0.0435466 
0.05885744 0.06054514 0.003609261 
-0.02416239 0.1837082 -0.01056923 
0.04585053 0.07986539 0.02089473 
-0.06891089 0.1461135 -0.02458526 
-0.003508023 0.1170987 -0.01589474 
-0.04629426 0.1477087 -0.003212261 
-0.02671471 0.06708549 0.03995053 
-0.06284299 0.1570728 -0.03946769 
0.01047359 0.128595 0.02697327 
-0.02658086 0.09348229 0.04507305 
-0.02471746 0.1017946 0.04385463 
-0.0256403 0.09506059 0.04402227 
-0.02816566 0.1781617 -0.006009948 
-0.09256674 0.1232033 0.008726337 
0.0425689 0.08516513 0.02910437 
-0.01595235 0.1599335 -0.0109435 
-0.02338609 0.04793522 0.05070978 
-0.06332834 0.1505412 -0.02823623 
-0.06669158 0.1530475 -0.0483491 
-0.02341334 0.1597683 -0.001901534 
0.01133229 0.06595215 0.05419882 
-0.07462364 0.1707932 -0.03129861 
-0.02772015 0.1073457 0.04014372 
0.04490728 0.08850175 -0.0009707767 
-0.01917388 0.1600104 -0.005319851 
0.01877316 0.08808769 0.04922229 
-0.01997647 0.05045829 0.04588644 
-0.01864774 0.0828936 0.05778082 
-0.02555116 0.1558177 -0.005557382 
-0.02172614 0.07347539 0.05282532 
-0.01771456 0.1112539 0.04051245 
0.0006771767 0.04150389 0.04642139 
0.006333563 0.08616507 0.05685448 
-0.0154716 0.07834752 0.0567886 
-0.01602027 0.05013728 0.04838077 
-0.01656001 0.1029163 0.04344532 
-0.01585166 0.0642112 0.05335713 
-0.07577837 0.1661738 -0.02225349 
-0.02007602 0.1183672 0.03500617 
-0.07145555 0.1492285 -0.04015413 
-0.04982958 0.1439582 0.001475073 
-0.0123622 0.06837557 0.0542613 
-0.0147865 0.09197716 0.05626695 
0.01604975 0.1291112 0.009343711 
-0.0126062 0.05082124 0.05051575 
-0.01373882 0.04782618 0.0479763 
-0.06228559 0.1685994 -0.04960241 
-0.01212607 0.1010873 0.04390452 
-0.05315228 0.152696 0.01578442 
-0.008168473 0.07615384 0.05784667 
-0.02035543 0.04464703 0.0530518 
-0.01204676 0.09388757 0.05572751 
-0.007518861 0.1215665 0.03665502 
-0.09126918 0.1406435 0.01621531 
-0.0106677 0.08304899 0.05777033 
-0.008130839 0.09955537 0.04967388 
-0.0096997 0.06186242 0.05593298 
-0.003962338 0.1068993 0.04416148 
-0.007426291 0.05604845 0.05374555 
-0.005636049 0.074026 0.05886488 
-0.03091655 0.1618444 -0.002614589 
0.02974622 0.1002504 0.04009112 
-0.03034431 0.1663539 -0.006656056 
0.02635971 0.107184 0.03824071 
-0.03316807 0.1673501 -0.004952017 
-0.01404075 0.1712915 -0.01804888 
0.0531927 0.05009197 0.02443422 
0.06068038 0.05916466 0.01170306 
-0.01677681 0.1862403 -0.01938009 
0.02718261 0.07799405 0.04595262 
0.0536568 0.05619087 0.02809513 
0.05256582 0.05128361 -0.001068004 
-0.0463834 0.1477911 0.007777195 
0.01537206 0.05505777 0.04896909 
-0.05505707 0.06921774 -0.01438035 
0.01934355 0.06284788 0.04841614 
0.024344 0.053528 0.042057 
-0.08289169 0.1082211 0.02717632 
0.008416905 0.07445828 0.05623668 
0.02696792 0.05074678 -0.02040231 
-0.0326626 0.05830528 -0.011922 
-0.04405464 0.1229244 0.02486449 
-0.0450091 0.1597718 0.006906855 
-0.069009 0.122845 0.052951 
-0.03567867 0.08816151 -0.02420994 
-0.03486775 0.1714356 -0.0001709009 
-0.06824681 0.1097248 0.03766013 
-0.0693037 0.1133637 0.04998562 
-0.06961271 0.1304541 0.04990417 
-0.03857614 0.03416053 0.02719637 
0.03339088 0.08916549 0.04207955 
-0.0621682 0.1261268 0.04335777 
-0.06532099 0.1245753 0.04939486 
0.05520223 0.06240252 0.0279819 
-0.05580385 0.04429993 0.04515633 
-0.06772421 0.14224 0.04401832 
-0.06468786 0.1333064 0.041023 
0.021315 0.03939 0.041121 
0.01206996 0.08161959 0.05405804 
-0.06261288 0.1770389 -0.05702175 
-0.06577166 0.1191483 0.05086213 
0.02731024 0.09401985 0.04460851 
0.01841042 0.07699873 0.05279709 
0.02671918 0.06103225 0.04390131 
-0.06568661 0.109258 0.03785682 
-0.06319762 0.1132379 0.03745723 
-0.02368925 0.1672972 -0.01065251 
-0.06087677 0.1181773 0.04044425 
-0.06097811 0.1231408 0.04236073 
-0.06231897 0.1376823 0.03559069 
-0.05361584 0.0368914 0.04728447 
0.03452088 0.09925062 0.03592246 
0.02126016 0.1051139 0.04233789 
0.04828287 0.0445482 0.002476848 
0.02033897 0.0556511 0.04818607 
-0.06361642 0.159953 -0.0561745 
0.02195628 0.0696202 0.04856518 
-0.01934857 0.1804452 -0.01655625 
-0.05593166 0.1229497 0.03956493 
-0.06019855 0.1277415 0.04106198 
-0.06296197 0.1422334 0.03806655 
0.01650448 0.04733133 0.04315292 
-0.04614278 0.04319974 0.04362271 
-0.02858577 0.03701802 0.05367352 
-0.01436796 0.1643239 -0.01155283 
-0.05680175 0.1379911 0.03245615 
-0.059354 0.140997 0.033503 
0.02062343 0.1152798 0.03587408 
-0.09175812 0.1423938 0.01818723 
-0.03342851 0.1524094 -0.001557101 
0.022376 0.082242 0.050019 
0.01422396 0.09167638 0.05227152 
-0.05503543 0.1142963 0.03502773 
-0.05928941 0.1492264 0.03573148 
0.01741583 0.04200189 0.04412176 
0.02438523 0.04860724 0.03939971 
-0.05033724 0.04481628 -0.009408211 
0.02412152 0.08910925 0.04804701 
0.02946416 0.1136481 0.03212895 
-0.05193714 0.1168666 0.03313303 
-0.0574067 0.1479117 0.03215992 
-0.02377041 0.1782549 -0.02003749 
0.02523994 0.04056526 0.03519431 
0.0320387 0.07081987 0.0406641 
-0.05549404 0.1462326 0.03051845 
-0.06618554 0.1476537 -0.02796831 
0.06112804 0.06419688 0.01092572 
-0.02992303 0.04923416 -0.02234392 
-0.02596555 0.04829119 -0.02604268 
-0.05361975 0.1390957 0.02789113 
-0.01625325 0.1767285 -0.0187939 
0.02618325 0.07032767 0.04365848 
-0.04793828 0.1183817 0.03032927 
0.02958826 0.08426342 0.04332165 
0.0284839 0.04757556 0.03627547 
-0.04955346 0.1287715 0.0315885 
0.03958586 0.09986527 -0.006111448 
0.03547603 0.07571054 0.03918814 
-0.07504425 0.1007455 -0.01225975 
0.03712853 0.07174518 0.03639323 
0.02285747 0.03479842 0.001124125 
0.02102335 0.1212736 0.03173081 
-0.06987291 0.1022359 -0.01431689 
0.03482613 0.0631021 0.03901472 
-0.06359769 0.1420846 -0.006829833 
0.02518684 0.0791074 0.04824034 
0.03850848 0.09267049 0.03421485 
0.05803152 0.05194997 0.01281972 
-0.07167051 0.1516617 -0.04485488 
-0.03536837 0.03447163 0.03374656 
0.05911107 0.05671909 0.02052255 
-0.009163726 0.1684498 -0.02010291 
-0.05057393 0.1514687 0.01215777 
0.04711974 0.04703245 0.0276103 
-0.03787957 0.1606081 -0.01291033 
0.04186313 0.08946992 -0.0089622 
0.03048532 0.05618669 0.0395949 
0.009118204 0.1212679 -0.0133427 
-0.03170233 0.1226994 -0.005832335 
0.03319567 0.08391032 0.04167214 
-0.04429956 0.1564413 0.006431156 
-0.04450129 0.1541426 0.007909312 
-0.04627619 0.04304367 -0.01106712 
0.04027687 0.08259847 0.03296618 
0.027107 0.040604 0.031367 
0.03919401 0.06839019 0.03381179 
-0.03551793 0.1570411 0.003679583 
-0.03630415 0.1581201 0.004124535 
-0.011204 0.164592 -0.01473773 
-0.03913455 0.1609429 0.001131878 
-0.03651995 0.1519962 0.001347451 
-0.03077783 0.159419 0.001819358 
-0.03986155 0.05994369 -0.01174052 
-0.09321172 0.1308089 0.02017312 
-0.08918108 0.1001724 0.0194025 
-0.05830396 0.03589861 0.04653066 
-0.08970676 0.09031323 0.01379789 
0.006705683 0.03859016 -0.007997554 
-0.03819052 0.04885553 -0.01165585 
-0.09194045 0.1154945 0.03651872 
-0.08216035 0.07535464 0.01574708 
-0.09486273 0.124815 0.02169617 
-0.06220483 0.1639562 -0.03966751 
-0.09052122 0.1401679 0.02205826 
-0.09161891 0.1451879 0.02249472 
0.02257842 0.04469583 -0.01634095 
-0.035813 0.084274 -0.022552 
-0.09103829 0.1349392 0.01811186 
0.02774245 0.0482323 -0.01635872 
0.031873 0.038004 0.023747 
-0.002649752 0.03547562 0.04743276 
0.007234078 0.08870824 -0.03297984 
-0.08949865 0.09001175 0.02027918 
-0.0497924 0.05335409 0.01587735 
-0.08455037 0.1442496 0.005283457 
-0.07579177 0.1570781 -0.005737757 
-0.07197472 0.1479068 -0.02978637 
-0.02116947 0.09116127 -0.0359779 
-0.06157934 0.1571056 -0.02036277 
0.03138391 0.05674359 -0.01549157 
-0.0862495 0.10913 0.01081557 
-0.05195851 0.05013733 0.03277948 
-0.092686 0.1220604 0.02996769 
-0.09244029 0.1259027 0.03966178 
0.04175951 0.07789624 -0.00664949 
-0.04931007 0.1339201 0.001406302 
-0.05054271 0.04666846 0.01754348 
-0.06244788 0.1456804 -0.006014653 
0.0386987 0.06859633 -0.01210124 
-0.07583773 0.1136938 -0.00538994 
-0.0897101 0.1365557 0.01263887 
-0.017035 0.033839 -0.02114 
0.03567795 0.07519516 -0.01403029 
-0.09352545 0.1195018 0.02454613 
0.03573478 0.08847315 -0.01718124 
-0.09184159 0.1281431 0.0323369 
0.0165816 0.03487285 -0.01687744 
0.03706122 0.06023984 -0.01084991 
-0.09331778 0.1198268 0.04095244 
-0.07694696 0.1067566 0.03439234 
0.0320317 0.05007738 -0.007347921 
-0.06145808 0.1577586 -0.03159666 
-0.08454572 0.1106738 0.02532492 
0.004855 0.033994 -0.020785 
-0.008396588 0.03378751 -0.02308836 
-0.09054102 0.1481877 0.01193201 
-0.05669066 0.08978798 -0.02188286 
0.03644602 0.05414638 -0.00662475 
-0.09114102 0.1164004 0.006824247 
-0.005766975 0.1107877 -0.02176538 
-0.0283987 0.1169074 -0.01397518 
0.01986479 0.04290912 -0.02123428 
0.04081434 0.06889148 -0.008617204 
-0.008042075 0.1000299 -0.02456668 
0.03408851 0.1090465 -0.007420418 
-0.06592315 0.1785881 -0.06058227 
-0.09189029 0.1482289 0.02184319 
0.03244784 0.06998663 -0.01807469 
-0.04247614 0.04696827 -0.01169687 
-0.0343455 0.033921 0.02279977 
-0.07472634 0.1501961 -0.03016222 
0.01038075 0.03428189 -0.01338713 
-0.0406352 0.08457232 -0.02140142 
0.04154534 0.06238624 -0.003015514 
-0.06278951 0.1611374 -0.04789006 
-0.0486657 0.1370007 0.01701814 
0.05019523 0.04382622 0.01077267 
0.04396678 0.0934515 0.02280388 
-0.01088805 0.1799483 -0.03007604 
0.05693243 0.05067866 0.01885824 
0.06032959 0.06534769 0.01923487 
0.05146888 0.06902358 0.02593051 
-0.05863894 0.04012408 0.01968547 
-0.07019626 0.1513191 0.03721319 
-0.07409253 0.1732388 -0.03721059 
-0.06127127 0.04659119 0.03854674 
0.05733636 0.06998257 0.02142335 
-0.05660296 0.1547854 0.02170739 
0.059784 0.07020787 0.01346587 
-0.07418963 0.1783998 -0.04695157 
-0.02705 0.033483 -0.026528 
0.05355138 0.07349652 0.0187214 
-0.07222102 0.1578298 -0.002815016 
-0.03535499 0.07403249 -0.01898422 
-0.05414384 0.1549066 0.01187266 
0.05491249 0.07300486 0.009040337 
0.04783164 0.0728786 0.01678301 
-0.081944 0.154696 0.01458 
0.0005284941 0.1012093 0.04420772 
0.04819056 0.07337242 0.0123037 
-0.01212773 0.1830015 -0.02576995 
0.02482778 0.08372555 -0.02458111 
-0.06267661 0.1527011 0.03452593 
-0.06615116 0.1555782 0.008574161 
-0.06561679 0.1542672 0.002143733 
-0.08642771 0.1073861 0.017666 
-0.06413635 0.1529979 -0.00497098 
-0.04589402 0.1292629 0.002266069 
-0.07913268 0.1487101 0.03902775 
-0.03734351 0.1272074 0.01724477 
-0.08845956 0.1524849 0.01906766 
-0.0342133 0.1274025 0.01188617 
-0.06576491 0.1647827 -0.0217536 
-0.06854271 0.1624128 -0.01274188 
-0.04392667 0.1260502 0.01955085 
-0.0377431 0.1226749 0.0277168 
-0.07533269 0.1797824 -0.05273967 
-0.04346462 0.129448 0.01076697 
-0.02904191 0.1248992 0.002860163 
-0.05767931 0.1557483 0.01058612 
-0.04284175 0.1274341 0.01729657 
-0.08720929 0.1519333 0.01088346 
-0.06579213 0.03564646 0.03992926 
-0.02223666 0.03646613 0.0540663 
-0.07269747 0.1546431 0.02997159 
-0.0657239 0.1563767 0.02431923 
-0.02016422 0.1868055 -0.01558128 
0.01908273 0.1266914 0.001579148 
-0.06045882 0.1558613 0.006866194 
0.02974855 0.1188875 0.02478291 
0.03289856 0.1169653 0.01583657 
-0.08499906 0.1092256 0.00537321 
-0.0006937042 0.09892797 0.05140213 
0.01985276 0.125542 0.02505647 
-0.03389949 0.03612658 0.04870972 
0.02952691 0.1203874 0.00769452 
0.02729262 0.1188489 -0.003878345 
-0.01752079 0.1878157 -0.02117293 
0.02493493 0.1243806 0.0147792 
0.01339093 0.1300826 0.01826167 
-0.02060062 0.09739572 0.04525054 
-0.07825316 0.1766135 -0.04706104 
-0.03948505 0.03545221 0.04259137 
-0.02551281 0.04165632 0.05431452 
-0.04676219 0.0651857 0.03834122 
-0.03008953 0.05322598 0.03628633 
-0.0328907 0.05139095 -0.01041308 
-0.03495842 0.04296579 0.04665871 
-0.01884054 0.0618032 0.04975391 
-0.03294064 0.04096249 0.05048095 
-0.05334606 0.06145335 0.0285834 
-0.01785751 0.05786455 0.05053809 
-0.06490424 0.04287517 0.03579804 
-0.02464403 0.08058944 0.05417736 
0.03721504 0.0842635 -0.01647274 
-0.02881362 0.08775036 0.04553611 
-0.03404178 0.1727724 -0.01453557 
-0.07876957 0.1709455 -0.03807155 
-0.04457098 0.1660839 -0.008733799 
-0.0817712 0.1203245 0.04937853 
-0.01697713 0.09569664 0.05235854 
-0.03770034 0.1636474 -0.01355015 
-0.0476064 0.0540129 0.03671696 
-0.0521903 0.05448387 0.02486494 
-0.03351756 0.04760273 0.04333956 
-0.02372391 0.08639158 0.05450981 
-0.06590436 0.08195991 0.04355957 
-0.022568 0.093282 0.050323 
-0.0606343 0.04152242 0.04487921 
-0.05242326 0.05684841 0.0201313 
-0.06408454 0.09444211 -0.01858115 
-0.05998631 0.0590012 0.005623 
-0.05217041 0.06033124 0.03016111 
-0.01991722 0.1085492 -0.02162424 
-0.05487692 0.0811729 -0.02135689 
-0.06577723 0.0752793 -0.01653449 
-0.03040185 0.1690367 -0.01705338 
-0.01829167 0.03353248 -0.0247323 
-0.06708831 0.03681014 0.03190111 
-0.06353363 0.04440605 0.03165552 
-0.02388893 0.05197632 0.04181223 
-0.02798685 0.05892544 0.0365455 
-0.0652348 0.03981192 0.02866542 
0.007864071 0.03449076 0.02117908 
-0.08533854 0.1234774 0.04912668 
-0.08457994 0.1313777 0.05026693 
-0.07032422 0.07559846 -0.01400482 
-0.06168732 0.1201832 -0.008936998 
-0.067818 0.092312 -0.016739 
-0.07530435 0.08952117 0.03994579 
-0.08544894 0.1384668 0.04469517 
-0.08315733 0.1167832 0.04873714 
-0.06373117 0.1625194 -0.05889959 
-0.07239428 0.03472785 0.001835184 
-0.0731688 0.03637183 0.006925587 
0.01085973 0.1114821 -0.01918583 
-0.064679 0.03784 0.024743 
-0.06843045 0.04424709 0.007529203 
-0.07299961 0.0961246 0.04074733 
-0.03700667 0.07192872 -0.01724661 
-0.07007556 0.03547672 0.01134851 
0.03240374 0.04088271 0.02742621 
-0.03954217 0.08020356 -0.01960826 
-0.08786691 0.1165271 0.04677596 
-0.08756447 0.09335767 0.02559192 
-0.087722 0.128407 0.046282 
-0.06625256 0.04132395 0.01257596 
-0.04651874 0.03498098 -0.01927769 
-0.08491888 0.1032456 0.02665248 
-0.084883 0.08760666 0.02794526 
-0.09159649 0.1177001 0.02825383 
-0.08316574 0.08083327 0.02883737 
-0.065226 0.166727 -0.059796 
-0.02471644 0.03526149 -0.02894679 
-0.0783704 0.1658062 -0.0294296 
-0.0635392 0.03546521 0.01843633 
-0.07580721 0.09179623 -0.01409358 
-0.02826162 0.08336318 -0.0360898 
-0.03768086 0.03371904 -0.03037447 
-0.07926977 0.08465119 0.03587638 
-0.05781883 0.04805129 0.008602617 
-0.08041694 0.09640666 0.03427302 
-0.037288 0.035383 0.024626 
-0.09072199 0.1228162 0.04506601 
-0.08790518 0.1439885 0.03646444 
-0.04851306 0.1575696 -0.006880715 
-0.09000923 0.1312797 0.04081358 
-0.06250907 0.03556253 0.02073505 
-0.09207918 0.114346 0.0189508 
0.05791995 0.07016748 0.005910921 
-0.06308196 0.1788875 -0.06107108 
-0.06658626 0.1728152 -0.05877627 
-0.07168723 0.1781391 -0.05585662 
0.02241287 0.04021493 -0.00624582 
-0.06964567 0.1635768 -0.0502096 
-0.06938514 0.1565157 -0.05145913 
-0.0715199 0.1678157 -0.04755203 
-0.07767445 0.1764761 -0.0504455 
-0.07166371 0.1564093 -0.0401726 
-0.07469723 0.1674186 -0.04181076 
-0.07910153 0.1712011 -0.04321452 
-0.05646919 0.04776715 0.02972849 
0.001509582 0.1265286 -0.006440352 
0.02142899 0.1153525 -0.01272448 
-0.07311197 0.1599693 -0.03508442 
0.03262968 0.1030072 -0.01348717 
-0.03017977 0.06718341 -0.02810876 
-0.0313407 0.07845695 -0.03295826 
-0.02894527 0.08894783 -0.03181928 
-0.07887199 0.1648359 -0.03299431 
-0.03337064 0.08397255 -0.02639604 
-0.05175877 0.05145318 0.03012757 
-0.07444404 0.1571914 -0.02499814 
0.002266219 0.09696118 -0.02878569 
-0.08880823 0.1371304 0.02613248 
-0.03388891 0.07642309 -0.02558522 
-0.03167042 0.08847495 -0.02513996 
-0.04253748 0.03422274 -0.02798603 
-0.07506751 0.1533457 -0.01749012 
-0.04501381 0.0386587 -0.02173901 
-0.03107285 0.06544986 -0.02251466 
-0.008028535 0.03485402 -0.02484568 
-0.01634677 0.03547019 -0.02670244 
-0.002471196 0.03859849 0.004987866 
-0.03011976 0.05848821 -0.02051066 
-0.07624073 0.1500788 -0.01578386 
-0.07794696 0.1576972 -0.01987089 
-0.04529151 0.04077702 -0.01687183 
-0.001209104 0.1001371 -0.02332228 
-0.04587812 0.03482752 0.04268673 
-0.03064922 0.05354854 -0.01510441 
-0.02151572 0.1167277 -0.01433783 
-0.0127792 0.09254356 -0.03591833 
-0.03288174 0.06431445 -0.01704495 
-0.0007857921 0.1120341 -0.02011859 
0.03186449 0.07893234 -0.01952156 
0.05377628 0.06153995 -0.00214995 
-0.02002479 0.0975092 -0.02480277 
0.01428691 0.1245139 -0.006707752 
-0.01004231 0.1157393 -0.01652908 
-0.01512189 0.1845212 -0.02677816 
-0.02715902 0.1125616 -0.01705861 
-0.01333592 0.03631072 0.05084495 
-0.07571066 0.0840371 -0.01403686 
-0.05370707 0.07401188 0.04161527 
-0.03535169 0.1757582 -0.01136367 
-0.019791 0.0347 -0.027631 
0.01429654 0.09669696 -0.02353487 
-0.00303181 0.09369697 -0.03415096 
-0.01497985 0.1224315 -0.00753958 
-0.08356921 0.1029853 -0.00288532 
0.05297216 0.06907431 0.00207241 
-0.0244579 0.1213752 -0.008868225 
-0.07563411 0.1508554 -0.00913859 
0.02493119 0.09995744 -0.01956592 
-0.02139344 0.112624 -0.01858543 
-0.01695066 0.1161486 -0.01635544 
-0.05562071 0.06194447 -0.0054742 
-0.0775008 0.07292782 -0.004946491 
-0.05938553 0.1333105 -0.00687137 
0.006412954 0.1178482 -0.01663832 
-0.07785697 0.1472994 -0.003724615 
0.01576832 0.102044 -0.02231366 
-0.05505868 0.05163479 -0.004474436 
-0.06519833 0.06277754 -0.00317733 
-0.04536451 0.1690522 -0.006119975 
-0.0673329 0.04405814 0.0008988107 
-0.08501307 0.08552151 -0.002422812 
-0.01028183 0.09712775 -0.03089277 
0.007459913 0.0934425 -0.03103178 
-0.08453539 0.1197727 -0.003011205 
-0.08497691 0.1267377 -0.003597173 
-0.07700878 0.1522164 -0.005560621 
-0.0483222 0.1671904 0.0007144143 
-0.08426883 0.09158555 -0.005056146 
-0.01639635 0.1259219 -0.002292081 
-0.08331563 0.1498491 0.003609054 
-0.05711524 0.05897379 -0.0008152717 
-0.07612258 0.07052919 7.399821e-05 
-0.08375853 0.0777173 0.002810169 
-0.08117595 0.111383 -0.0008480042 
-0.08791354 0.1203428 -1.885887e-05 
-0.05830119 0.1576976 0.002251947 
-0.05831309 0.04799696 -0.0002157033 
-0.08780397 0.09321293 0.005330553 
-0.07861894 0.1526351 0.001036791 
-0.08057666 0.07967824 -0.005215901 
-0.08133011 0.07284569 0.005953822 
-0.08806953 0.08635812 0.00450836 
-0.08768027 0.09692615 0.003649308 
0.01422557 0.08883802 -0.02979225 
0.02926566 0.1122694 -0.009359746 
-0.02746986 0.09450983 -0.02524083 
-0.02273762 0.0936068 -0.03311774 
0.01891682 0.09035798 -0.02578764 
0.02237687 0.1072907 -0.01587201 
-0.03627526 0.04408873 -0.02733852 
0.04612018 0.07359948 0.004077656 
-0.01501401 0.105543 -0.02250769 
-0.006562964 0.1262463 -0.007870774 
0.03542263 0.09484828 -0.0129348 
-0.06311771 0.1515354 -0.001710995 
0.005733403 0.1309727 0.002296738 
-0.04259997 0.03763822 -0.02679628 
-0.06098382 0.1546403 0.002928192 
-0.06072638 0.1519332 0.0001500607 
0.02005303 0.09936118 -0.02187166 
-0.0377803 0.1093328 -0.01964132 
-0.008807578 0.1206103 -0.01307363 
0.0404951 0.04114208 0.02440508 
-0.05958179 0.1463155 -0.002108823 
-0.03335897 0.03545531 -0.0310326 
-0.05606092 0.1542956 -0.001307613 
-0.05717666 0.1393982 -0.004718372 
0.01165102 0.1050492 -0.01986392 
-0.02660677 0.1801997 -0.0162479 
0.04705939 0.07147577 0.004649191 
-0.05273908 0.1323461 -0.00416482 
-0.04984 0.122243 -0.011204 
-0.05148471 0.128157 -0.004187999 
-0.0516867 0.1183575 -0.01410807 
-0.033442 0.033566 -0.029736 
-0.04575795 0.1263608 -0.007130357 
-0.04412507 0.1186773 -0.01452324 
-0.04692154 0.1078669 -0.01889676 
0.04920631 0.06091795 -0.00450995 
-0.03859996 0.1278087 0.0001120546 
-0.05553782 0.04672006 -0.005496666 
-0.03669979 0.1252871 -0.005782912 
-0.03930417 0.1226851 -0.0107169 
0.02770562 0.09044544 -0.02139672 
-0.04080633 0.1159338 -0.01514812 
-0.03537021 0.1190271 -0.01169636 
-0.06598632 0.1172152 -0.009241831 
-0.04939217 0.08452698 -0.0217428 
-0.07326298 0.1423448 -0.007275924 
-0.05089281 0.1093523 -0.0189034 
0.05141373 0.05634764 -0.004181243 
-0.06876832 0.0675592 -0.005079023 
-0.05114403 0.1007026 -0.02180955 
-0.05413506 0.04137256 -0.01005953 
-0.07921328 0.1400012 -0.004583782 
0.04251568 0.05083559 -0.006698952 
-0.06068751 0.09696975 -0.0188151 
-0.06498244 0.1069245 -0.01465285 
-0.03643758 0.1047038 -0.02070767 
0.04571195 0.04882674 -0.0047578 
-0.05848286 0.08112971 -0.02035393 
-0.05859407 0.1101311 -0.01710448 
-0.07192762 0.1148171 -0.007724933 
-0.06257498 0.1028343 -0.01817588 
-0.078904 0.126621 -0.006282 
-0.055993 0.1240692 -0.007141849 
0.0377655 0.04111915 -0.002232676 
-0.069768 0.082253 -0.017064 
-0.06262404 0.08190917 -0.01929379 
-0.070112 0.0868352 -0.01695873 
-0.05399965 0.06493507 -0.009508444 
-0.05453639 0.1503659 -0.002217403 
-0.07024381 0.09563572 -0.01591952 
0.02860254 0.04605358 -0.006783167 
-0.042625 0.05345 -0.011207 
-0.04521947 0.09552795 -0.02201127 
-0.04972123 0.06962734 -0.01440922 
-0.04889525 0.06347916 -0.01258714 
-0.04789965 0.0520806 -0.00936743 
0.03262703 0.04478974 -0.005914212 
-0.06693704 0.03955812 -0.005906421 
-0.06163042 0.06905806 -0.01326989 
-0.05631305 0.09581172 -0.02174505 
0.02293043 0.064289 -0.02525673 
0.0258221 0.07154346 -0.02500887 
-0.054892 0.105518 -0.01867 
0.02135833 0.05439252 -0.02698897 
0.022283 0.066418 -0.026857 
-0.04359199 0.09012749 -0.02206572 
-0.07032374 0.1280166 -0.009091324 
-0.04426534 0.06055526 -0.01253996 
0.02180765 0.051608 -0.02456713 
0.01954587 0.06053293 -0.02711651 
0.01900553 0.0698912 -0.02906703 
0.02078773 0.04661962 -0.02056312 
0.01945451 0.07674118 -0.02759176 
-0.04446738 0.07899938 -0.01947997 
-0.06482209 0.08676326 -0.01903234 
-0.04322165 0.07110471 -0.01777834 
0.01598358 0.05144364 -0.02658976 
0.01517783 0.03847071 -0.0218033 
0.01178996 0.0488482 -0.02748847 
0.01453014 0.04725527 -0.02507749 
0.009957822 0.07224369 -0.03249322 
-0.07236532 0.0371233 0.0009187994 
-0.0755494 0.1181446 -0.007228771 
0.01028241 0.0364801 -0.02295518 
0.00737703 0.04557349 -0.02560277 
0.01063309 0.0676235 -0.03084313 
0.01257062 0.06145192 -0.02962886 
0.001789969 0.06409848 -0.03415888 
0.008851062 0.05502249 -0.03046556 
0.007638381 0.0737218 -0.03421544 
0.0002686588 0.1030265 -0.02261334 
0.01082102 0.07942744 -0.03226514 
-0.05744063 0.03386348 -0.01118776 
0.004929672 0.05888322 -0.03110581 
0.004845074 0.03654135 -0.02417017 
0.00196092 0.04835667 -0.0300235 
0.003353378 0.08781493 -0.03381512 
-0.001210681 0.07505814 -0.0359286 
0.004656314 0.04130404 -0.02402099 
0.003904133 0.05231928 -0.02981535 
0.001752633 0.06868851 -0.03363941 
-0.004941761 0.0528008 -0.03224004 
-0.002531279 0.08443304 -0.03722487 
-0.001115397 0.0563057 -0.03222718 
-0.007191965 0.07590201 -0.03760617 
-0.008080384 0.1084213 -0.0224571 
-0.006496359 0.06173976 -0.03537092 
-0.007185333 0.04582684 -0.02942728 
-0.01333135 0.05705993 -0.03451018 
-0.008480569 0.08498611 -0.03788437 
-0.01008106 0.06642045 -0.0359103 
-0.0489849 0.03405954 -0.0133663 
-0.007043151 0.04299362 -0.02581796 
-0.01150968 0.04835469 -0.03068488 
-0.01543883 0.08182364 -0.039524 
-0.06846417 0.03402332 -0.006077456 
-0.01200999 0.07201752 -0.03843518 
-0.0136074 0.07747102 -0.03842996 
-0.01514021 0.0647904 -0.03756456 
-0.01639073 0.0554537 -0.03393842 
-0.01443822 0.08810195 -0.03845789 
-0.01632778 0.04409515 -0.02731672 
-0.02218512 0.07339133 -0.03885546 
-0.02096224 0.08279938 -0.03911792 
-0.01935952 0.03835476 0.00134688 
-0.064705 0.035219 0.024325 
-0.02117829 0.1749631 -0.02204009 
-0.02009929 0.04066464 -0.02861241 
-0.05982551 0.0747434 0.04180729 
-0.02167965 0.0464732 -0.02764494 
-0.02612292 0.05679476 -0.02872736 
-0.02178444 0.06337444 -0.0352056 
-0.02801854 0.1049259 -0.0230305 
-0.02649383 0.16873 -0.01851382 
-0.02765484 0.07274015 -0.03514073 
-0.02639816 0.08713411 -0.0360714 
0.01359579 0.03496945 0.04223943 
0.01994195 0.03624971 0.01886493 
-0.01497019 0.03465204 0.04891777 
0.002730571 0.03464489 0.02007723 
-0.01909179 0.03839061 -0.01713481 
0.01093094 0.03463787 0.03481225 
-0.02575743 0.03789467 0.02152189 
0.03918049 0.03808276 0.01525699 
0.009851805 0.03478377 -0.007551324 
0.008732463 0.03583024 0.04510029 
0.006267197 0.03401742 0.002335375 
-0.08961491 0.1129413 0.04062984 
0.02658 0.034551 0.013049 
0.02267984 0.03472549 0.02065004 
0.01958226 0.03512948 0.03218136 
-0.0002565171 0.03499366 0.01405366 
-0.004019028 0.03835202 0.01202604 
0.0125793 0.03488947 0.02952589 
0.02381978 0.03445261 0.008325124 
-0.01519383 0.03823869 0.0204429 
0.001620636 0.034665 0.004102093 
-0.08926239 0.1125804 0.03524091 
0.00495967 0.0396022 0.0342746 
0.008921276 0.03827688 0.03290313 
0.003353046 0.03927557 -0.01061684 
-0.08817444 0.1140426 0.02778629 
0.01949566 0.03647594 0.03968218 
0.0161034 0.03652434 0.04335745 
0.002713443 0.03430157 -0.01659901 
0.0009054235 0.03745571 -0.01435337 
-0.01831146 0.03861799 0.03074398 
0.005066561 0.0336743 0.0125469 
0.03374995 0.0354501 0.01076402 
-0.07756265 0.109736 0.04367559 
-0.003288089 0.03915149 -0.01316038 
-0.08527842 0.1132775 0.04576349 
-0.07892255 0.1086044 0.03502571 
0.007047869 0.03753506 -0.01222478 
0.02534761 0.0382257 0.02856397 
-0.0008483445 0.03455482 0.04419131 
-0.06637598 0.03472036 0.03274028 
-0.07921257 0.1121754 0.04610315 
-0.08222665 0.07832197 0.02489151 
-0.07504921 0.06622615 0.009530567 
-0.07753285 0.07127465 0.02424938 
0.04937936 0.04418622 0.01965848 
-0.07580295 0.1141974 0.05045981 
-0.0723506 0.06447112 0.01865838 
0.02833212 0.03542047 0.01896497 
-0.07208358 0.07279342 0.03493315 
-0.06184469 0.06077216 -0.0004443238 
-0.07069756 0.06657241 0.02634364 
-0.07099315 0.03374143 0.005244427 
-0.0678454 0.06013295 0.01176976 
-0.05469812 0.05646836 0.01069934 
0.00744022 0.03895256 0.02932336 
-0.06634171 0.06174363 0.02147 
-0.06125239 0.03337251 -0.00229802 
0.01713062 0.03439278 0.002140389 
0.01280623 0.03433497 -0.00857784 
-0.06200626 0.06900426 0.03663518 
-0.05366333 0.03346276 -0.01034354 
-0.0638257 0.06583065 0.03207055 
-0.04666839 0.03356132 -0.01591744 
-0.05225268 0.03357709 0.008767322 
-0.0389919 0.03356625 -0.02214606 
-0.06026991 0.03399915 0.02015645 
-0.0520278 0.06578258 0.03585805 
-0.04195477 0.03399869 -0.008486463 
-0.05540051 0.03359025 0.02024972 
-0.03715193 0.03443777 -0.01687017 
-0.04715582 0.03351688 0.005668609 
-0.04741293 0.0743688 0.04201154 
-0.03390198 0.03371304 -0.02072607 
-0.05811961 0.03457506 0.04419461 
-0.03231581 0.03865822 -0.01605451 
-0.02804062 0.03855996 -0.01754724 
-0.02724744 0.03388589 -0.02120281 
-0.04089849 0.03365382 0.007087093 
-0.04996173 0.03446097 0.03017218 
-0.05015075 0.03458807 0.04397646 
-0.04394731 0.03451202 0.03074962 
-0.03456132 0.03369413 0.01216948 
-0.05133951 0.05589332 0.01556831 
3 1 932 2 
3 1 3 7 
3 952 935 0 
3 1 2 3 
3 4 6 3 
3 4 423 6 
3 0 7 952 
3 952 953 935 
3 2 4 3 
3 423 5 6 
3 0 1 7 
3 10 666 343 
3 11 12 513 
3 11 14 13 
3 8 10 9 
3 8 9 994 
3 10 11 666 
3 11 13 12 
3 8 11 10 
3 9 10 1009 
3 14 11 8 
3 17 931 627 
3 19 15 940 
3 627 931 18 
3 15 16 961 
3 17 21 20 
3 17 20 931 
3 19 16 15 
3 19 17 16 
3 17 19 21 
3 27 998 22 
3 24 25 26 
3 24 53 25 
3 23 24 26 
3 23 26 27 
3 22 23 27 
3 29 38 240 
3 38 41 240 
3 484 232 67 
3 480 607 467 
3 988 21 19 
3 60 110 50 
3 763 60 50 
3 74 41 37 
3 96 244 134 
3 637 40 909 
3 183 554 43 
3 477 489 476 
3 538 531 302 
3 60 763 771 
3 150 32 548 
3 612 348 529 
3 536 46 32 
3 560 585 533 
3 96 29 240 
3 654 487 672 
3 557 150 52 
3 65 629 57 
3 65 58 629 
3 277 100 121 
3 475 695 685 
3 104 588 606 
3 603 69 57 
3 448 474 55 
3 405 370 329 
3 65 91 58 
3 562 38 29 
3 596 529 623 
3 447 461 42 
3 91 70 58 
3 277 83 130 
3 834 416 828 
3 69 65 57 
3 36 533 165 
3 75 37 306 
3 838 868 839 
3 338 846 700 
3 754 755 835 
3 74 37 75 
3 772 450 768 
3 65 90 91 
3 450 448 55 
3 291 536 193 
3 536 291 469 
3 130 128 214 
3 294 177 92 
3 590 845 172 
3 87 95 44 
3 84 98 522 
3 75 101 74 
3 340 88 82 
3 563 531 538 
3 138 78 236 
3 64 337 69 
3 337 342 69 
3 274 125 197 
3 105 567 377 
3 161 223 113 
3 250 237 113 
3 144 114 116 
3 132 109 285 
3 325 254 227 
3 286 218 117 
3 37 41 78 
3 96 240 74 
3 124 82 642 
3 124 358 82 
3 358 340 82 
3 93 269 282 
3 830 367 251 
3 252 145 94 
3 76 197 116 
3 131 114 144 
3 132 131 109 
3 478 121 781 
3 125 126 89 
3 325 227 367 
3 286 126 352 
3 38 123 41 
3 41 123 78 
3 240 41 74 
3 96 74 101 
3 610 147 633 
3 147 152 103 
3 633 147 103 
3 116 197 112 
3 118 76 114 
3 92 248 242 
3 197 125 148 
3 467 1013 984 
3 134 29 96 
3 158 358 124 
3 922 146 610 
3 153 312 142 
3 89 243 313 
3 159 219 176 
3 641 664 767 
3 146 147 610 
3 124 103 152 
3 776 700 102 
3 542 176 311 
3 76 116 114 
3 332 352 126 
3 576 127 175 
3 922 157 146 
3 170 124 152 
3 144 299 109 
3 170 158 124 
3 153 116 112 
3 250 154 237 
3 868 840 632 
3 620 600 395 
3 190 358 158 
3 145 181 94 
3 150 536 32 
3 631 860 61 
3 146 169 147 
3 147 169 152 
3 190 386 358 
3 126 286 117 
3 364 348 612 
3 255 87 44 
3 157 169 146 
3 153 112 312 
3 181 85 94 
3 142 116 153 
3 79 528 193 
3 528 275 193 
3 529 348 163 
3 157 168 169 
3 279 198 160 
3 593 578 377 
3 822 630 852 
3 174 922 728 
3 174 157 922 
3 174 168 157 
3 152 169 170 
3 170 186 158 
3 158 186 190 
3 299 144 142 
3 194 168 174 
3 159 381 219 
3 623 685 239 
3 348 178 163 
3 457 458 382 
3 997 616 588 
3 728 185 174 
3 188 170 169 
3 188 195 170 
3 274 332 125 
3 383 444 177 
3 109 131 144 
3 594 616 997 
3 311 223 161 
3 305 218 576 
3 36 560 533 
3 185 194 174 
3 194 188 169 
3 168 194 169 
3 195 199 186 
3 170 195 186 
3 189 190 186 
3 525 85 181 
3 336 196 538 
3 426 336 538 
3 332 356 352 
3 348 376 178 
3 48 546 387 
3 190 406 393 
3 160 216 127 
3 376 192 178 
3 192 606 178 
3 399 293 182 
3 189 186 199 
3 279 391 198 
3 244 96 101 
3 194 209 188 
3 1002 203 185 
3 203 194 185 
3 209 195 188 
3 189 204 190 
3 190 204 406 
3 216 366 159 
3 588 200 1002 
3 210 335 406 
3 336 217 196 
3 200 202 1002 
3 202 203 1002 
3 194 203 209 
3 525 164 85 
3 376 207 192 
3 192 207 208 
3 387 546 119 
3 209 199 195 
3 209 215 199 
3 215 189 199 
3 210 406 204 
3 224 208 207 
3 104 225 200 
3 518 226 300 
3 211 239 526 
3 222 202 200 
3 202 212 203 
3 212 220 209 
3 203 212 209 
3 215 204 189 
3 225 104 208 
3 234 225 208 
3 204 221 210 
3 223 250 113 
3 476 489 487 
3 208 224 234 
3 209 220 215 
3 220 231 215 
3 215 221 204 
3 218 127 576 
3 224 589 234 
3 210 221 236 
3 490 459 677 
3 89 117 243 
3 217 339 44 
3 222 212 202 
3 236 559 210 
3 225 222 200 
3 212 235 220 
3 235 241 220 
3 220 241 231 
3 589 625 234 
3 245 212 222 
3 245 235 212 
3 253 215 231 
3 570 255 228 
3 218 385 127 
3 238 225 234 
3 238 222 225 
3 253 221 215 
3 197 148 112 
3 159 176 216 
3 75 306 237 
3 481 794 418 
3 276 236 221 
3 245 222 238 
3 263 253 231 
3 253 276 221 
3 423 68 1011 
3 239 56 526 
3 625 238 234 
3 245 241 235 
3 89 313 148 
3 241 263 231 
3 115 399 179 
3 526 56 480 
3 31 554 183 
3 604 609 296 
3 138 236 276 
3 625 260 238 
3 238 260 245 
3 262 75 237 
3 422 246 272 
3 263 265 253 
3 265 264 253 
3 264 276 253 
3 385 160 127 
3 131 118 114 
3 166 541 31 
3 550 150 785 
3 117 218 171 
3 181 347 525 
3 605 600 620 
3 252 94 135 
3 270 149 593 
3 244 583 297 
3 216 176 175 
3 587 270 593 
3 624 149 270 
3 187 454 771 
3 255 266 228 
3 292 138 276 
3 277 410 83 
3 645 252 135 
3 116 142 144 
3 176 542 175 
3 304 270 587 
3 684 601 585 
3 30 79 556 
3 284 276 264 
3 292 37 138 
3 280 624 270 
3 101 75 262 
3 577 154 219 
3 289 284 264 
3 375 131 132 
3 584 289 264 
3 284 292 276 
3 173 381 159 
3 127 216 175 
3 125 89 148 
3 506 781 517 
3 304 299 270 
3 270 299 280 
3 280 288 595 
3 244 101 583 
3 283 281 597 
3 541 166 46 
3 786 297 571 
3 138 37 78 
3 299 288 280 
3 183 43 552 
3 283 287 281 
3 296 609 281 
3 366 173 159 
3 786 244 297 
3 290 287 283 
3 857 206 473 
3 130 83 128 
3 290 295 287 
3 287 296 281 
3 251 367 520 
3 227 254 321 
3 304 109 299 
3 583 101 262 
3 171 218 305 
3 160 198 216 
3 125 332 126 
3 298 595 288 
3 278 442 378 
3 308 296 287 
3 499 565 760 
3 288 299 298 
3 298 312 595 
3 295 303 287 
3 293 272 182 
3 310 595 312 
3 303 308 287 
3 308 305 296 
3 296 305 309 
3 284 306 292 
3 306 37 292 
3 89 126 117 
3 286 385 218 
3 299 142 298 
3 298 142 312 
3 295 313 303 
3 301 161 289 
3 161 284 289 
3 161 306 284 
3 301 311 161 
3 113 306 161 
3 148 295 310 
3 171 305 308 
3 542 301 309 
3 303 243 308 
3 243 171 308 
3 112 310 312 
3 310 112 148 
3 295 148 313 
3 313 243 303 
3 243 117 171 
3 352 385 286 
3 370 356 332 
3 330 368 375 
3 261 495 271 
3 224 207 586 
3 643 717 334 
3 411 433 323 
3 400 673 532 
3 90 65 69 
3 407 344 355 
3 342 90 69 
3 371 228 318 
3 272 369 518 
3 179 481 418 
3 780 191 662 
3 337 346 342 
3 349 90 342 
3 411 323 397 
3 341 354 64 
3 354 346 337 
3 327 329 76 
3 93 45 269 
3 424 324 320 
3 424 347 324 
3 106 100 256 
3 346 350 342 
3 342 350 349 
3 361 354 341 
3 374 119 349 
3 437 413 439 
3 317 365 392 
3 361 341 359 
3 346 354 345 
3 190 393 386 
3 340 359 341 
3 350 374 349 
3 437 268 420 
3 581 322 544 
3 404 544 371 
3 436 905 824 
3 842 428 259 
3 354 362 345 
3 346 345 350 
3 361 362 354 
3 156 294 120 
3 366 317 173 
3 340 358 359 
3 350 363 374 
3 440 273 445 
3 408 389 351 
3 344 420 365 
3 388 351 389 
3 333 462 459 
3 362 373 345 
3 345 373 350 
3 359 358 386 
3 357 368 330 
3 449 364 612 
3 605 602 600 
3 219 154 250 
3 362 372 373 
3 363 350 373 
3 385 279 160 
3 434 336 426 
3 379 363 373 
3 323 433 407 
3 376 348 364 
3 359 386 361 
3 361 372 362 
3 380 374 363 
3 781 121 100 
3 285 388 132 
3 361 386 372 
3 372 409 373 
3 380 387 374 
3 323 419 370 
3 384 279 352 
3 409 379 373 
3 398 394 380 
3 394 387 380 
3 387 34 48 
3 282 278 383 
3 319 360 378 
3 278 378 273 
3 855 719 511 
3 363 379 380 
3 318 404 371 
3 389 375 388 
3 393 372 386 
3 379 403 380 
3 403 398 380 
3 34 387 394 
3 201 376 364 
3 357 417 397 
3 378 360 314 
3 957 351 388 
3 413 411 397 
3 76 274 197 
3 375 132 388 
3 94 417 430 
3 384 352 356 
3 409 403 379 
3 417 413 397 
3 366 216 198 
3 97 257 115 
3 164 439 85 
3 391 279 384 
3 401 66 402 
3 406 372 393 
3 406 409 372 
3 228 266 318 
3 442 319 378 
3 259 80 129 
3 355 366 198 
3 268 521 420 
3 420 122 365 
3 164 268 439 
3 315 366 355 
3 316 404 318 
3 378 445 273 
3 407 391 419 
3 389 408 330 
3 411 437 433 
3 355 344 315 
3 407 419 323 
3 406 230 409 
3 279 385 352 
3 405 323 370 
3 408 430 330 
3 420 344 437 
3 439 413 417 
3 423 513 53 
3 233 167 819 
3 530 525 347 
3 91 349 119 
3 135 94 408 
3 94 430 408 
3 90 349 91 
3 523 424 320 
3 427 145 252 
3 437 344 433 
3 370 419 356 
3 230 406 335 
3 347 524 530 
3 98 141 920 
3 329 357 405 
3 565 46 769 
3 129 80 93 
3 329 370 274 
3 223 176 250 
3 115 257 399 
3 339 217 336 
3 636 369 246 
3 118 375 327 
3 71 423 53 
3 400 532 524 
3 439 268 437 
3 407 433 344 
3 110 60 33 
3 45 425 442 
3 316 318 443 
3 266 44 339 
3 419 391 384 
3 324 347 181 
3 145 324 181 
3 365 122 392 
3 425 544 319 
3 407 355 391 
3 321 400 524 
3 567 304 587 
3 405 397 323 
3 430 357 330 
3 327 368 329 
3 201 207 376 
3 54 256 268 
3 450 55 768 
3 135 408 396 
3 242 479 92 
3 268 164 54 
3 347 424 524 
3 282 129 93 
3 479 120 92 
3 367 227 520 
3 88 340 341 
3 326 435 39 
3 435 426 39 
3 85 439 417 
3 387 119 374 
3 329 274 76 
3 435 434 426 
3 327 76 118 
3 324 145 320 
3 85 417 94 
3 369 636 226 
3 92 326 39 
3 946 949 918 
3 726 304 567 
3 344 365 315 
3 371 322 228 
3 227 421 520 
3 521 122 420 
3 314 443 445 
3 273 440 444 
3 278 269 442 
3 413 437 411 
3 523 421 321 
3 176 219 250 
3 177 444 326 
3 389 330 375 
3 294 383 177 
3 320 145 427 
3 440 435 326 
3 441 434 435 
3 440 441 435 
3 355 198 391 
3 378 314 445 
3 315 365 317 
3 371 544 322 
3 424 321 524 
3 429 277 121 
3 326 444 440 
3 443 336 434 
3 360 316 314 
3 392 381 317 
3 254 400 321 
3 360 404 316 
3 356 419 384 
3 135 396 438 
3 332 274 370 
3 443 339 336 
3 319 404 360 
3 318 339 443 
3 208 104 606 
3 500 818 618 
3 322 570 228 
3 319 544 404 
3 317 381 173 
3 443 434 441 
3 375 368 327 
3 246 47 636 
3 256 180 521 
3 726 285 304 
3 469 291 658 
3 254 249 673 
3 304 285 109 
3 357 329 368 
3 837 830 251 
3 445 443 441 
3 301 542 311 
3 442 425 319 
3 440 445 441 
3 314 316 443 
3 397 405 357 
3 830 325 367 
3 430 417 357 
3 415 219 381 
3 118 131 375 
3 266 339 318 
3 315 317 366 
3 448 549 474 
3 720 809 735 
3 477 476 492 
3 654 453 476 
3 972 653 466 
3 672 59 63 
3 455 42 59 
3 495 456 49 
3 179 472 481 
3 972 110 33 
3 84 544 425 
3 165 300 353 
3 466 448 450 
3 862 857 473 
3 211 626 239 
3 98 84 425 
3 620 927 80 
3 495 472 179 
3 56 607 480 
3 55 773 768 
3 277 180 100 
3 499 510 554 
3 206 491 473 
3 62 674 353 
3 482 511 486 
3 544 522 724 
3 472 550 481 
3 472 52 550 
3 24 72 53 
3 206 511 482 
3 206 857 854 
3 180 277 130 
3 333 473 462 
3 42 67 267 
3 784 689 410 
3 474 63 502 
3 428 620 80 
3 570 729 87 
3 81 973 762 
3 502 267 67 
3 502 63 267 
3 956 396 351 
3 481 550 785 
3 25 53 513 
3 607 695 616 
3 55 575 773 
3 491 482 506 
3 108 668 43 
3 486 598 478 
3 35 468 484 
3 491 501 494 
3 781 506 478 
3 491 506 501 
3 254 673 400 
3 877 871 490 
3 28 496 672 
3 474 575 55 
3 703 701 651 
3 462 494 844 
3 459 462 677 
3 490 677 73 
3 261 456 495 
3 489 477 107 
3 498 705 497 
3 484 461 35 
3 505 459 490 
3 537 646 136 
3 462 844 677 
3 461 307 35 
3 261 518 456 
3 62 300 226 
3 382 510 499 
3 698 457 461 
3 300 30 456 
3 227 321 421 
3 1013 467 613 
3 482 478 506 
3 478 429 121 
3 461 484 42 
3 862 473 333 
3 457 698 458 
3 277 429 410 
3 300 456 518 
3 575 474 502 
3 511 719 486 
3 99 410 508 
3 507 721 782 
3 206 482 491 
3 62 353 300 
3 598 429 478 
3 685 56 239 
3 446 334 172 
3 468 499 760 
3 695 607 56 
3 847 841 328 
3 598 488 429 
3 35 499 468 
3 300 165 30 
3 484 468 232 
3 617 926 739 
3 740 739 715 
3 497 877 490 
3 472 495 49 
3 482 486 478 
3 497 705 888 
3 505 865 459 
3 473 494 462 
3 501 506 517 
3 871 505 490 
3 972 466 110 
3 242 248 519 
3 865 333 459 
3 39 248 92 
3 473 491 494 
3 256 521 268 
3 523 520 421 
3 646 516 136 
3 426 302 39 
3 447 42 455 
3 351 396 408 
3 398 39 34 
3 653 972 655 
3 519 403 86 
3 444 383 273 
3 128 77 214 
3 859 338 460 
3 130 214 180 
3 248 398 403 
3 398 248 39 
3 100 180 256 
3 273 383 278 
3 226 518 369 
3 214 122 521 
3 214 77 122 
3 178 475 163 
3 464 285 726 
3 180 214 521 
3 523 321 424 
3 533 30 165 
3 97 470 257 
3 533 585 528 
3 547 788 548 
3 454 33 60 
3 166 569 547 
3 392 122 77 
3 381 392 415 
3 673 539 532 
3 535 530 532 
3 535 525 530 
3 556 557 49 
3 539 535 532 
3 544 724 581 
3 475 606 695 
3 535 164 525 
3 399 182 271 
3 543 535 539 
3 561 519 86 
3 535 543 540 
3 535 540 164 
3 54 164 540 
3 31 541 554 
3 474 28 63 
3 484 67 42 
3 800 543 539 
3 106 540 543 
3 106 54 540 
3 674 36 165 
3 781 106 543 
3 606 616 695 
3 256 54 106 
3 549 28 474 
3 549 652 331 
3 309 305 576 
3 781 100 106 
3 496 28 331 
3 452 590 401 
3 557 536 150 
3 137 7 949 
3 63 59 267 
3 538 196 563 
3 568 183 527 
3 561 810 551 
3 217 757 196 
3 95 757 44 
3 166 31 568 
3 426 538 302 
3 553 564 558 
3 569 568 546 
3 674 165 353 
3 271 182 261 
3 46 166 32 
3 561 564 553 
3 564 561 86 
3 422 272 293 
3 86 409 230 
3 555 561 553 
3 546 568 527 
3 46 565 541 
3 541 565 554 
3 558 335 559 
3 527 183 552 
3 553 558 559 
3 558 86 230 
3 562 555 38 
3 569 166 568 
3 70 119 527 
3 810 555 562 
3 767 664 51 
3 477 670 107 
3 846 829 102 
3 32 166 547 
3 242 519 561 
3 150 548 785 
3 812 810 562 
3 306 113 237 
3 584 301 289 
3 467 984 51 
3 531 48 34 
3 652 549 448 
3 788 547 572 
3 547 569 563 
3 302 531 34 
3 569 531 563 
3 788 572 766 
3 38 555 123 
3 555 553 123 
3 561 555 810 
3 519 248 403 
3 123 553 559 
3 31 183 568 
3 546 527 119 
3 528 601 275 
3 458 108 510 
3 559 335 210 
3 30 556 49 
3 937 962 520 
3 44 757 217 
3 86 558 564 
3 78 559 236 
3 603 64 69 
3 193 557 556 
3 302 34 39 
3 193 536 557 
3 123 559 78 
3 533 528 79 
3 573 392 77 
3 602 669 796 
3 472 49 52 
3 128 574 77 
3 572 547 563 
3 261 272 518 
3 558 230 335 
3 529 685 623 
3 99 574 128 
3 574 573 77 
3 32 547 548 
3 527 552 70 
3 64 354 337 
3 275 291 193 
3 533 79 30 
3 48 569 546 
3 574 582 573 
3 528 585 601 
3 99 579 574 
3 579 582 574 
3 562 29 759 
3 52 150 550 
3 582 577 573 
3 577 415 573 
3 403 409 86 
3 44 266 255 
3 120 294 92 
3 70 91 119 
3 941 492 453 
3 580 579 99 
3 770 763 50 
3 175 542 576 
3 415 577 219 
3 580 571 579 
3 571 582 579 
3 531 569 48 
3 583 577 582 
3 530 524 532 
3 542 309 576 
3 984 133 51 
3 565 769 760 
3 30 49 456 
3 571 297 582 
3 582 297 583 
3 262 154 577 
3 128 83 99 
3 97 115 233 
3 487 455 59 
3 557 52 49 
3 262 237 154 
3 79 193 556 
3 583 262 577 
3 415 392 573 
3 643 646 537 
3 454 60 771 
3 301 604 309 
3 50 450 772 
3 597 609 599 
3 589 624 625 
3 624 592 625 
3 593 149 591 
3 599 263 241 
3 70 552 58 
3 247 241 245 
3 606 475 178 
3 99 508 580 
3 196 757 563 
3 260 247 245 
3 691 661 916 
3 958 515 959 
3 80 927 141 
3 609 263 599 
3 591 608 224 
3 587 593 377 
3 821 254 325 
3 606 588 616 
3 383 294 129 
3 592 260 625 
3 611 604 584 
3 320 975 523 
3 111 62 226 
3 612 529 596 
3 201 586 207 
3 609 611 263 
3 613 607 616 
3 616 594 613 
3 642 103 124 
3 588 104 200 
3 1012 513 12 
3 290 592 595 
3 611 265 263 
3 622 596 623 
3 281 609 597 
3 296 309 604 
3 469 46 536 
3 398 34 394 
3 80 141 93 
3 133 984 615 
3 861 869 446 
3 163 475 685 
3 290 283 592 
3 567 587 377 
3 699 537 136 
3 796 669 842 
3 290 595 310 
3 57 628 603 
3 283 597 247 
3 610 633 663 
3 934 205 1006 
3 638 875 637 
3 82 88 493 
3 578 593 591 
3 57 629 628 
3 592 283 260 
3 172 845 446 
3 628 667 647 
3 629 634 670 
3 584 604 301 
3 628 629 649 
3 205 23 1006 
3 641 875 638 
3 624 280 595 
3 647 635 628 
3 628 635 603 
3 167 825 819 
3 605 620 428 
3 591 224 586 
3 608 591 149 
3 634 58 552 
3 290 310 295 
3 621 485 1007 
3 638 644 641 
3 578 591 586 
3 192 208 606 
3 653 648 466 
3 648 652 448 
3 566 596 622 
3 383 129 282 
3 612 596 566 
3 667 628 649 
3 622 626 640 
3 641 644 650 
3 634 552 668 
3 260 283 247 
3 241 247 599 
3 184 831 618 
3 516 859 460 
3 633 642 665 
3 665 642 82 
3 43 510 108 
3 201 364 1010 
3 275 601 291 
3 179 399 271 
3 665 652 648 
3 629 670 649 
3 608 149 589 
3 624 595 592 
3 608 589 224 
3 664 480 51 
3 665 82 493 
3 149 624 589 
3 611 609 604 
3 676 509 675 
3 653 665 648 
3 480 467 51 
3 652 665 331 
3 452 401 512 
3 610 663 979 
3 526 664 650 
3 650 664 641 
3 899 503 884 
3 623 626 622 
3 611 584 265 
3 650 659 526 
3 795 657 805 
3 102 829 926 
3 655 663 653 
3 622 640 919 
3 890 753 465 
3 663 665 653 
3 247 597 599 
3 645 135 438 
3 667 670 477 
3 563 757 572 
3 750 875 641 
3 671 526 659 
3 647 667 492 
3 649 670 667 
3 526 480 664 
3 869 867 646 
3 634 668 670 
3 633 665 663 
3 665 493 331 
3 723 718 503 
3 639 687 779 
3 47 675 656 
3 560 36 676 
3 678 680 675 
3 680 676 675 
3 676 681 560 
3 679 678 47 
3 565 499 554 
3 246 422 679 
3 680 683 676 
3 679 682 678 
3 676 683 681 
3 678 682 680 
3 683 684 681 
3 681 684 585 
3 422 682 679 
3 156 259 294 
3 683 693 684 
3 293 514 422 
3 688 683 680 
3 693 601 684 
3 673 249 735 
3 800 781 543 
3 686 744 258 
3 682 688 680 
3 692 929 661 
3 754 835 876 
3 514 682 422 
3 925 690 928 
3 688 696 683 
3 489 107 447 
3 924 690 925 
3 928 690 691 
3 692 661 691 
3 696 693 683 
3 693 658 601 
3 690 699 691 
3 694 692 691 
3 682 696 688 
3 854 855 511 
3 428 80 259 
3 776 777 692 
3 476 487 654 
3 514 702 682 
3 682 702 696 
3 693 710 658 
3 700 692 694 
3 700 776 692 
3 696 710 693 
3 107 108 698 
3 514 293 470 
3 924 704 690 
3 690 704 699 
3 699 694 691 
3 143 731 697 
3 697 731 753 
3 819 97 233 
3 708 704 924 
3 338 700 694 
3 790 814 778 
3 718 723 258 
3 108 670 668 
3 701 703 787 
3 704 537 699 
3 703 780 787 
3 66 708 924 
3 694 460 338 
3 470 709 514 
3 162 780 703 
3 709 702 514 
3 686 722 431 
3 487 489 455 
3 455 489 447 
3 447 698 461 
3 777 929 692 
3 395 799 724 
3 498 621 706 
3 704 717 537 
3 698 108 458 
3 107 670 108 
3 708 717 704 
3 141 98 45 
3 685 695 56 
3 470 97 709 
3 710 756 658 
3 581 724 799 
3 711 703 651 
3 711 162 703 
3 66 714 708 
3 26 1012 27 
3 702 710 696 
3 756 469 658 
3 512 162 711 
3 447 107 698 
3 436 711 651 
3 25 513 1012 
3 590 66 401 
3 708 714 717 
3 453 492 476 
3 590 714 66 
3 35 382 499 
3 307 382 35 
3 626 623 239 
3 382 458 510 
3 172 714 590 
3 172 334 714 
3 714 334 717 
3 974 454 187 
3 737 702 709 
3 729 570 799 
3 570 581 799 
3 586 713 68 
3 711 436 512 
3 425 45 98 
3 702 756 710 
3 120 479 801 
3 457 382 307 
3 633 103 642 
3 630 770 727 
3 819 709 97 
3 702 737 756 
3 457 307 461 
3 697 732 752 
3 95 87 729 
3 672 487 59 
3 782 721 926 
3 734 412 155 
3 819 745 709 
3 729 600 602 
3 706 730 921 
3 727 751 660 
3 758 155 660 
3 758 734 155 
3 115 418 233 
3 466 648 448 
3 700 846 102 
3 709 745 737 
3 331 28 549 
3 770 751 727 
3 751 758 660 
3 477 492 667 
3 291 601 658 
3 729 602 749 
3 749 95 729 
3 388 285 939 
3 725 739 926 
3 630 742 770 
3 764 483 734 
3 747 741 841 
3 783 258 792 
3 718 798 884 
3 503 718 884 
3 756 737 745 
3 59 42 267 
3 110 466 450 
3 742 763 770 
3 825 760 745 
3 756 46 469 
3 516 460 136 
3 50 110 450 
3 767 747 811 
3 822 762 742 
3 754 483 764 
3 776 721 777 
3 681 585 560 
3 602 766 749 
3 752 732 716 
3 716 471 777 
3 791 725 829 
3 769 756 745 
3 749 757 95 
3 747 761 741 
3 748 81 822 
3 822 81 762 
3 742 762 763 
3 67 232 755 
3 29 134 759 
3 766 757 749 
3 255 570 87 
3 767 811 750 
3 770 772 751 
3 751 768 758 
3 773 734 758 
3 575 764 734 
3 755 765 67 
3 760 769 745 
3 769 46 756 
3 767 133 747 
3 747 133 761 
3 768 773 758 
3 151 468 825 
3 468 760 825 
3 761 133 615 
3 446 643 334 
3 762 771 763 
3 768 751 772 
3 764 765 754 
3 502 67 765 
3 468 151 232 
3 641 767 750 
3 762 973 771 
3 773 575 734 
3 764 575 765 
3 766 572 757 
3 767 51 133 
3 770 50 772 
3 575 502 765 
3 162 512 401 
3 731 774 753 
3 798 779 746 
3 62 111 674 
3 431 687 639 
3 580 775 687 
3 401 402 780 
3 782 926 617 
3 775 689 779 
3 940 988 19 
3 83 410 99 
3 779 790 746 
3 697 753 732 
3 432 816 812 
3 488 814 738 
3 780 402 191 
3 539 673 735 
3 586 201 713 
3 486 719 598 
3 191 657 795 
3 781 800 517 
3 689 784 738 
3 513 423 343 
3 544 84 522 
3 93 141 45 
3 779 689 738 
3 423 1011 343 
3 562 736 432 
3 249 254 720 
3 580 687 722 
3 5 423 71 
3 821 720 254 
3 786 686 783 
3 736 504 432 
3 784 488 738 
3 788 789 785 
3 548 788 785 
3 723 782 740 
3 687 431 722 
3 179 271 495 
3 736 715 504 
3 25 1012 26 
3 794 785 789 
3 785 794 481 
3 244 786 134 
3 733 740 715 
3 784 429 488 
3 777 471 929 
3 686 258 783 
3 507 712 697 
3 814 545 778 
3 796 789 788 
3 794 797 418 
3 562 759 736 
3 744 718 258 
3 162 401 780 
3 725 926 829 
3 792 723 740 
3 662 701 787 
3 258 723 792 
3 794 156 797 
3 759 783 733 
3 782 617 739 
3 715 739 725 
3 716 914 471 
3 735 809 800 
3 809 517 800 
3 721 507 752 
3 249 720 735 
3 804 832 631 
3 504 725 815 
3 803 743 801 
3 580 722 571 
3 120 801 743 
3 923 191 402 
3 816 504 815 
3 715 725 504 
3 686 431 744 
3 265 584 264 
3 799 395 600 
3 816 432 504 
3 631 802 804 
3 836 802 631 
3 786 722 686 
3 722 786 571 
3 803 806 836 
3 836 806 802 
3 43 554 510 
3 507 697 752 
3 800 539 735 
3 733 792 740 
3 801 551 803 
3 740 782 739 
3 759 134 783 
3 796 766 602 
3 322 581 570 
3 759 733 736 
3 551 801 479 
3 807 804 802 
3 808 820 804 
3 775 508 689 
3 721 752 777 
3 600 729 799 
3 806 807 802 
3 725 791 815 
3 551 806 803 
3 242 561 551 
3 242 551 479 
3 808 804 807 
3 201 1010 713 
3 777 752 716 
3 733 783 792 
3 712 507 899 
3 736 733 715 
3 824 905 886 
3 732 890 896 
3 687 775 779 
3 551 810 806 
3 815 808 807 
3 388 939 957 
3 810 812 806 
3 812 813 806 
3 806 813 807 
3 815 791 808 
3 508 775 580 
3 134 786 783 
3 744 431 639 
3 738 814 790 
3 503 782 723 
3 753 890 732 
3 639 779 798 
3 712 143 697 
3 731 778 774 
3 795 662 191 
3 813 815 807 
3 813 816 815 
3 508 410 689 
3 816 813 812 
3 903 914 716 
3 562 432 812 
3 779 738 790 
3 876 860 817 
3 766 796 788 
3 958 485 498 
3 876 817 833 
3 412 483 833 
3 11 513 666 
3 843 416 827 
3 619 831 184 
3 111 226 636 
3 795 805 662 
3 980 741 761 
3 140 151 167 
3 843 155 416 
3 513 343 666 
3 821 809 720 
3 465 753 774 
3 328 184 847 
3 839 827 500 
3 840 660 843 
3 830 821 325 
3 827 853 500 
3 821 826 809 
3 727 660 838 
3 830 826 821 
3 61 836 631 
3 501 809 826 
3 691 916 928 
3 517 809 501 
3 834 832 856 
3 860 140 167 
3 805 657 534 
3 876 140 860 
3 534 730 621 
3 730 534 657 
3 699 136 460 
3 754 876 483 
3 835 140 876 
3 909 40 851 
3 851 40 750 
3 657 191 921 
3 834 828 832 
3 727 838 630 
3 835 151 140 
3 837 850 830 
3 830 850 826 
3 847 848 841 
3 840 868 838 
3 826 850 501 
3 828 412 833 
3 867 516 646 
3 824 811 390 
3 853 827 856 
3 831 500 618 
3 850 494 501 
3 859 846 338 
3 847 184 618 
3 632 840 843 
3 167 151 825 
3 754 765 755 
3 47 656 636 
3 416 155 412 
3 844 494 850 
3 139 837 213 
3 139 850 837 
3 789 796 842 
3 719 488 598 
3 794 842 156 
3 643 869 646 
3 660 840 838 
3 741 748 841 
3 719 814 488 
3 446 869 643 
3 848 847 869 
3 824 886 851 
3 832 833 817 
3 552 43 668 
3 868 614 839 
3 719 545 814 
3 717 643 537 
3 852 328 748 
3 731 746 790 
3 850 677 844 
3 851 886 909 
3 369 272 246 
3 747 841 848 
3 731 790 778 
3 139 677 850 
3 787 780 662 
3 328 841 748 
3 855 545 719 
3 755 232 151 
3 867 618 818 
3 669 428 842 
3 849 848 845 
3 414 677 139 
3 818 853 846 
3 854 858 855 
3 866 545 855 
3 829 823 791 
3 746 731 143 
3 660 155 843 
3 414 73 677 
3 836 743 803 
3 674 111 509 
3 842 794 789 
3 847 867 869 
3 849 811 747 
3 827 834 856 
3 333 865 862 
3 863 854 857 
3 866 855 858 
3 864 866 858 
3 483 876 833 
3 847 618 867 
3 748 741 980 
3 997 728 922 
3 854 863 858 
3 428 669 605 
3 848 869 861 
3 852 184 328 
3 865 870 862 
3 857 880 863 
3 858 863 864 
3 874 866 864 
3 866 774 545 
3 605 669 602 
3 870 857 862 
3 867 818 516 
3 845 861 446 
3 505 873 865 
3 865 873 870 
3 874 885 866 
3 866 465 774 
3 818 859 516 
3 675 509 656 
3 873 872 870 
3 870 882 857 
3 880 864 863 
3 885 465 866 
3 619 184 852 
3 505 871 873 
3 882 880 857 
3 842 259 156 
3 879 874 864 
3 832 817 631 
3 851 750 811 
3 964 205 934 
3 871 878 873 
3 880 879 864 
3 390 849 436 
3 512 849 452 
3 849 845 452 
3 875 750 40 
3 877 892 871 
3 871 892 878 
3 870 872 882 
3 874 883 885 
3 102 721 776 
3 873 878 872 
3 881 879 880 
3 879 883 874 
3 878 893 872 
3 887 881 880 
3 511 206 854 
3 782 503 899 
3 442 269 45 
3 497 888 877 
3 893 882 872 
3 881 894 879 
3 879 894 883 
3 832 804 820 
3 882 887 880 
3 845 848 861 
3 143 884 798 
3 831 839 500 
3 835 755 151 
3 877 888 892 
3 878 889 893 
3 885 890 465 
3 798 718 639 
3 246 679 47 
3 61 418 743 
3 887 882 893 
3 890 885 883 
3 891 890 883 
3 712 884 143 
3 793 645 463 
3 883 894 891 
3 639 718 744 
3 823 853 856 
3 893 897 887 
3 887 897 881 
3 918 24 23 
3 892 906 878 
3 878 906 889 
3 891 896 890 
3 416 834 827 
3 824 390 436 
3 889 895 893 
3 630 619 852 
3 888 906 892 
3 891 898 896 
3 61 167 233 
3 906 901 889 
3 895 897 893 
3 712 899 884 
3 897 900 881 
3 436 849 512 
3 881 904 894 
3 894 904 891 
3 903 732 896 
3 906 915 901 
3 901 907 895 
3 889 901 895 
3 73 988 989 
3 390 811 849 
3 747 848 849 
3 860 167 61 
3 904 881 900 
3 904 898 891 
3 898 903 896 
3 716 732 903 
3 730 706 621 
3 895 902 897 
3 897 902 900 
3 902 912 900 
3 900 912 904 
3 839 614 827 
3 71 72 24 
3 888 705 906 
3 907 901 915 
3 904 910 898 
3 898 911 903 
3 828 833 832 
3 905 991 886 
3 418 797 743 
3 656 509 111 
3 902 895 907 
3 903 908 914 
3 416 412 828 
3 782 899 507 
3 115 179 418 
3 705 706 906 
3 910 911 898 
3 903 911 908 
3 856 832 820 
3 859 818 846 
3 61 743 836 
3 920 522 98 
3 904 912 910 
3 619 839 831 
3 282 269 278 
3 706 921 906 
3 906 921 915 
3 913 925 902 
3 925 912 902 
3 746 143 798 
3 822 852 748 
3 637 875 40 
3 920 724 522 
3 467 607 613 
3 907 913 902 
3 838 839 619 
3 913 907 915 
3 916 910 912 
3 742 630 822 
3 923 913 915 
3 917 908 911 
3 778 545 774 
3 120 743 797 
3 678 675 47 
3 908 917 914 
3 632 614 868 
3 818 500 853 
3 211 526 671 
3 498 485 621 
3 920 395 724 
3 925 916 912 
3 910 916 911 
3 916 917 911 
3 644 638 982 
3 61 233 418 
3 745 819 825 
3 921 923 915 
3 402 66 924 
3 632 843 614 
3 614 843 827 
3 851 811 824 
3 823 808 791 
3 846 853 823 
3 640 626 211 
3 927 920 141 
3 656 111 636 
3 730 657 921 
3 924 913 923 
3 917 471 914 
3 919 640 211 
3 211 671 919 
3 925 913 924 
3 699 460 694 
3 846 823 829 
3 823 856 808 
3 928 916 925 
3 917 929 471 
3 856 820 808 
3 36 509 676 
3 402 924 923 
3 661 917 916 
3 661 929 917 
3 395 920 927 
3 620 395 927 
3 590 452 845 
3 163 685 529 
3 631 817 860 
3 630 838 619 
3 921 191 923 
3 102 926 721 
3 944 935 947 
3 464 726 932 
3 960 3 6 
3 520 975 937 
3 975 793 937 
3 213 414 139 
3 931 943 18 
3 957 939 930 
3 53 72 71 
3 399 470 293 
3 414 942 948 
3 942 20 948 
3 942 943 931 
3 20 942 931 
3 523 975 520 
3 257 470 399 
3 944 930 935 
3 953 947 935 
3 515 938 451 
3 967 515 451 
3 7 960 949 
3 948 20 21 
3 229 959 934 
3 63 28 672 
3 515 958 497 
3 962 942 414 
3 943 944 18 
3 496 331 493 
3 930 939 969 
3 672 955 654 
3 933 945 961 
3 946 945 137 
3 962 414 213 
3 939 285 464 
3 672 496 955 
3 956 957 930 
3 427 252 793 
3 935 969 0 
3 410 429 784 
3 938 950 451 
3 985 947 953 
3 968 943 978 
3 946 918 707 
3 968 944 943 
3 948 21 988 
3 944 956 930 
3 955 966 951 
3 952 7 137 
3 985 137 933 
3 954 964 959 
3 496 966 955 
3 966 941 951 
3 967 954 959 
3 654 951 453 
3 229 958 959 
3 464 932 1 
3 960 7 3 
3 965 647 941 
3 586 68 578 
3 251 213 837 
3 958 229 485 
3 17 627 16 
3 963 965 941 
3 707 918 964 
3 251 962 213 
3 726 567 932 
3 936 5 71 
3 963 941 966 
3 962 978 942 
3 645 968 463 
3 567 105 932 
3 493 966 496 
3 965 635 647 
3 967 451 954 
3 978 943 942 
3 941 453 951 
3 2 105 4 
3 973 187 771 
3 454 974 33 
3 949 960 936 
3 105 68 4 
3 963 971 965 
3 965 971 635 
3 120 797 156 
3 88 963 966 
3 971 603 635 
3 960 6 936 
3 968 956 944 
3 412 734 483 
3 949 936 918 
3 932 105 2 
3 966 493 88 
3 973 977 187 
3 964 934 959 
3 137 949 946 
3 977 974 187 
3 974 972 33 
3 341 963 88 
3 971 976 603 
3 985 953 952 
3 945 933 137 
3 989 515 490 
3 182 272 261 
3 933 947 985 
3 81 983 973 
3 977 981 974 
3 979 972 974 
3 979 655 972 
3 707 950 946 
3 918 23 205 
3 603 976 64 
3 963 976 971 
3 748 983 81 
3 983 977 973 
3 981 979 974 
3 951 654 955 
3 294 259 129 
3 950 945 946 
3 982 638 637 
3 18 947 627 
3 748 980 983 
3 414 948 988 
3 414 988 73 
3 909 982 637 
3 16 933 961 
3 497 958 498 
3 963 341 976 
3 981 992 979 
3 396 956 968 
3 651 905 436 
3 983 986 977 
3 490 515 497 
3 451 950 707 
3 615 983 980 
3 615 984 983 
3 975 427 793 
3 311 176 223 
3 977 986 981 
3 105 377 578 
3 936 24 918 
3 936 6 5 
3 982 909 987 
3 980 761 615 
3 959 515 967 
3 969 464 1 
3 0 969 1 
3 509 36 674 
3 886 987 909 
3 438 396 968 
3 1013 983 984 
3 983 1013 986 
3 992 990 979 
3 979 922 610 
3 644 659 650 
3 930 969 935 
3 991 987 886 
3 659 644 982 
3 981 986 992 
3 793 463 937 
3 996 659 982 
3 947 933 627 
3 320 427 975 
3 252 645 793 
3 987 996 982 
3 964 918 205 
3 987 999 996 
3 1013 613 986 
3 594 986 613 
3 979 990 922 
3 423 4 68 
3 936 71 24 
3 954 451 707 
3 594 992 986 
3 706 705 498 
3 994 999 987 
3 996 671 659 
3 622 919 970 
3 58 634 629 
3 989 938 515 
3 954 707 964 
3 701 993 651 
3 993 905 651 
3 996 970 919 
3 671 996 919 
3 326 92 177 
3 18 944 947 
3 701 662 993 
3 993 991 905 
3 662 995 993 
3 994 987 1001 
3 15 961 940 
3 997 922 990 
3 992 997 990 
3 655 979 663 
3 995 998 993 
3 27 991 993 
3 9 999 994 
3 1003 995 662 
3 805 1003 662 
3 998 27 993 
3 1001 8 994 
3 594 997 992 
3 1000 998 995 
3 27 987 991 
3 14 8 1001 
3 1004 970 996 
3 970 1004 566 
3 937 978 962 
3 1003 1000 995 
3 9 1009 999 
3 1009 996 999 
3 1009 1004 996 
3 937 463 978 
3 463 968 978 
3 612 566 449 
3 997 1002 728 
3 449 566 1004 
3 645 438 968 
3 939 464 969 
3 534 1003 805 
3 1005 22 1000 
3 22 998 1000 
3 941 647 492 
3 341 64 976 
3 588 1002 997 
3 1002 185 728 
3 985 952 137 
3 520 962 251 
3 27 1001 987 
3 1001 1008 14 
3 1008 13 14 
3 627 933 16 
3 73 989 490 
3 1003 1005 1000 
3 1008 1001 27 
3 989 940 938 
3 1007 1006 1005 
3 1003 1007 1005 
3 23 22 1005 
3 957 956 351 
3 1009 1010 1004 
3 988 940 989 
3 1007 1003 534 
3 1012 13 1008 
3 10 1011 1009 
3 1010 449 1004 
3 938 940 950 
3 1011 1010 1009 
3 1006 23 1005 
3 1012 1008 27 
3 364 449 1010 
3 940 961 950 
3 1007 229 1006 
3 1012 12 13 
3 343 1011 10 
3 713 1010 1011 
3 68 713 1011 
3 105 578 68 
3 950 961 945 
3 621 1007 534 
3 229 1007 485 
3 229 934 1006 
3 970 566 622 
